<svg xmlns="http://www.w3.org/2000/svg" width="540" height="1140" viewBox="0 0 540 1140" role="img" aria-labelledby="title desc">
  <title id="title">Loyalist - Retention Analytics</title>
  <desc id="desc">Mock product screenshot for Loyalist showing the Retention Analytics screen.</desc>
  <defs>
    <linearGradient id="bg" x1="0" y1="0" x2="1" y2="1">
      <stop offset="0%" stop-color="#0f766e" />
      <stop offset="100%" stop-color="#134e4a" />
    </linearGradient>
    <linearGradient id="bar" x1="0" y1="0" x2="1" y2="0">
      <stop offset="0%" stop-color="#38bdf8" stop-opacity="0.95" />
      <stop offset="100%" stop-color="#ffffff" stop-opacity="0.25" />
    </linearGradient>
  </defs>
  <rect width="540" height="1140" rx="36" fill="url(#bg)" />
  <rect x="36" y="46" width="468" height="36" rx="18" fill="#ffffff" fill-opacity="0.22" />
  <rect x="36" y="126" width="468" height="150" rx="24" fill="#ffffff" fill-opacity="0.20" />
  <text x="62" y="182" font-size="44" font-family="Inter, Arial, sans-serif" fill="#ffffff" font-weight="700">Loyalist</text>
  <text x="62" y="232" font-size="28" font-family="Inter, Arial, sans-serif" fill="#ffffff" fill-opacity="0.92">Retention Analytics</text>
  <rect x="36" y="316" width="468" height="390" rx="28" fill="#ffffff" fill-opacity="0.16" />
  <rect x="62" y="356" width="416" height="20" rx="10" fill="#ffffff" fill-opacity="0.80" />
  <rect x="62" y="394" width="286" height="16" rx="8" fill="#ffffff" fill-opacity="0.58" />
  <rect x="62" y="448" width="416" height="180" rx="20" fill="#0b1220" fill-opacity="0.34" />
  <rect x="74" y="468" width="126" height="140" rx="14" fill="url(#bar)" />
  <rect x="214" y="506" width="126" height="102" rx="14" fill="url(#bar)" />
  <rect x="354" y="486" width="112" height="122" rx="14" fill="url(#bar)" />
  <rect x="36" y="748" width="468" height="164" rx="28" fill="#ffffff" fill-opacity="0.18" />
  <circle cx="96" cy="830" r="36" fill="#ffffff" fill-opacity="0.27" />
  <rect x="150" y="794" width="318" height="22" rx="11" fill="#ffffff" fill-opacity="0.83" />
  <rect x="150" y="830" width="248" height="18" rx="9" fill="#ffffff" fill-opacity="0.58" />
  <rect x="150" y="864" width="194" height="18" rx="9" fill="#ffffff" fill-opacity="0.46" />
  <rect x="36" y="954" width="468" height="126" rx="24" fill="#0b1220" fill-opacity="0.30" />
  <rect x="64" y="992" width="412" height="16" rx="8" fill="#ffffff" fill-opacity="0.65" />
  <rect x="64" y="1022" width="290" height="14" rx="7" fill="#ffffff" fill-opacity="0.42" />
</svg>
